<svg xmlns="http://www.w3.org/2000/svg" xmlns:xlink="http://www.w3.org/1999/xlink" width="50" height="60" preserveAspectRatio="xMidYMid meet" viewBox="0 0 14 16" style="-ms-transform: rotate(360deg); -webkit-transform: rotate(360deg); transform: rotate(360deg);"><path fill-rule="evenodd" d="M7 2.3c3.14 0 5.7 2.56 5.7 5.7s-2.56 5.7-5.7 5.7A5.71 5.71 0 0 1 1.3 8c0-3.14 2.56-5.7 5.7-5.7zM7 1C3.14 1 0 4.14 0 8s3.14 7 7 7s7-3.14 7-7s-3.14-7-7-7zm1 3H6v5h2V4zm0 6H6v2h2v-2z" fill="#626262"/><rect x="0" y="0" width="14" height="16" fill="rgba(0, 0, 0, 0)" /></svg>
